<svg width="61" height="62" fill="none" xmlns="http://www.w3.org/2000/svg"><g clip-path="url(#a)" fill="#FF6B09"><path d="M13.677 28.6c0 .447-.677.447-.677 0 0-9.504 7.693-17.212 17.178-17.212 9.489 0 17.177 7.708 17.177 17.212 0 .447-.673.447-.673 0 0-6.424-10.535-6.428-10.535 0 0 .447-.694.447-.694 0 0-6.408-10.551-6.408-10.551 0 0 .447-.694.447-.694 0 0-6.396-10.53-6.44-10.53 0Zm10.592-2.495c.183-3.697.763-7.013 1.606-9.545.673-2.011 1.525-3.539 2.49-4.396-7.242.792-13.106 6.294-14.416 13.43 2.494-3.605 8.252-3.316 10.32.511Zm11.132-.166c-.187-3.556-.75-6.737-1.562-9.163-2.092-6.278-5.23-6.278-7.323 0-.811 2.426-1.37 5.607-1.561 9.163 2.25-3.832 8.195-3.832 10.446 0Zm11.005-.346c-1.305-7.135-7.17-12.637-14.416-13.43.97.858 1.817 2.386 2.49 4.397.844 2.532 1.424 5.848 1.606 9.545 2.08-3.848 7.855-4.075 10.32-.512ZM27.923 36.476v-3.495c-.628.419-1.123 1.065-1.123 1.853 0 .768.503 1.277 1.123 1.642Zm.678 1.086c-1.205-.553-2.474-1.2-2.474-2.728 0-1.577 1.196-2.365 2.474-2.954v5.682ZM32.432 41.75v3.535c.637-.423 1.135-1.073 1.135-1.861 0-.776-.51-1.3-1.135-1.674Zm-.673-1.09c1.208.561 2.486 1.228 2.486 2.764 0 1.58-1.205 2.369-2.486 2.954V40.66Z"/><path d="M32.432 29.003c2.773.642 5.624 2.722 5.624 5.83 0 2.662-4.489 2.565-4.489 0 0-.792-.498-1.442-1.135-1.86v4.973c2.567.842 5.632 2.35 5.632 5.478 0 3.113-2.85 5.19-5.632 5.827-.012 2.962-4.501 2.958-4.51-.004-1.581-.366-2.956-1.105-3.95-2.084-1.041-1.033-1.658-2.329-1.658-3.739 0-2.62 4.485-2.62 4.485 0 0 .784.495 1.43 1.123 1.849v-4.97c-2.546-.825-5.628-2.377-5.628-5.477 0-3.113 2.85-5.19 5.628-5.828.013-2.962 4.502-2.958 4.51.005Zm-3.832.008v.54c-2.64.524-5.633 2.219-5.633 5.275 0 2.938 3.285 4.254 5.633 4.981v6.567c-1.27-.58-2.474-1.365-2.474-2.95 0-1.731-3.139-1.731-3.139 0 0 1.223.544 2.353 1.46 3.255 1.164 1.154 2.575 1.703 4.153 2.015v.545c0 2.085 3.159 2.085 3.159 0v-.54c2.648-.529 5.628-2.223 5.628-5.275 0-2.966-3.276-4.242-5.628-4.986v-6.562c1.273.58 2.486 1.365 2.486 2.958 0 1.686 3.134 1.755 3.134 0 0-3.052-2.976-4.75-5.62-5.279v-.544c0-2.085-3.16-2.085-3.16 0Z"/></g><path d="M60 9.235V1H1v60h59v-8.235" stroke="#FF6B09" stroke-width="2"/><defs><clipPath id="a"><path fill="#fff" transform="translate(13 11.388)" d="M0 0h35v40.082H0z"/></clipPath></defs></svg>