<svg width="61" height="62" fill="none" xmlns="http://www.w3.org/2000/svg"><g clip-path="url(#a)"><path d="M13.872 50.8h33.481c.166-3.826-.108-10.174-2.455-13.195l-.085-.109-5.13-2.58c.111-.377.166-.722.188-.975a1.792 1.792 0 0 0-.125-.85c-.846-2.029-2.637-3.096-3.622-3.551.3-.607.494-1.257.587-1.922a1.647 1.647 0 0 0 1.154-1.19l.598-2.438c.106-.43.04-.876-.188-1.255a1.641 1.641 0 0 0-.368-.42c1.689-3.842-1.139-7.465-1.293-7.656-3.062-3.317-6.93-2.697-7.135-2.66-5.583 1.171-7.737 5.458-6.52 10.487-.361.4-.512.957-.379 1.503l.602 2.44c.146.587.59 1.028 1.144 1.187a6.284 6.284 0 0 0 1.44 3.206v1.932c-8.01 4.111-2.934 1.489-9.354 4.743-.013.06-3.013 3.255-2.567 12.724l.027.579Zm32.318-1.215h-5.51v-2.32l3.644-8.36c1.826 3.037 1.893 8.835 1.866 10.68Zm-7.52-15.748c-.214 2.448-1.553 1.708-2.38 3.594-.65-.717-.846-1.576-.671-2.496.316-1.689-.713-2.19-.46-3.965l.04-.041v-.006c.021-.024.224-.266.283-.343 2.18.953 3.23 2.724 3.187 3.257Zm-11.696-1.924a6.198 6.198 0 0 0 6.968.094c.14 1.396.684 1.675.49 2.702-.035.19-.055.378-.067.563l-3.752 4.238-4.797-5.42 1.158-.606v-1.57Zm-1.509-5.186V20.248c.584-1.082 1.38-1.867 2.37-2.337 2.65 1.502 5.7 3.744 7.746 6.001-.002 2.874.008 2.882-.011 3.118l-.001.015c-.16 2.61-2.301 4.773-5.048 4.773-2.67 0-4.886-2.1-5.046-4.799a3.41 3.41 0 0 1-.01-.292Zm-.747 7.95 5.895 6.659 3.958-4.47c.09.261.217.508.362.746l-4.32 5.413-6.442-8.073.547-.276Zm12.07-8.928v-1.876l.45-.517c.025.95.127-.171-.45 2.393Zm-7.086-12.556c.24.014 3.457-.49 6 2.26.1.126 2.169 2.797 1.337 5.72-.284-1.3-.78-2.967-1.564-3.762l-.857.855c.774.785 1.282 3.178 1.476 4.418-3.55-3.723-8.13-6.08-8.193-6.12-.23.144-2.168.513-3.576 3.255l-.067.13v2.014l-.177.002c-.895-4.327.818-7.764 5.621-8.772Zm-5.749 10.022.305 1.236v1.3l-.506-2.053c-.075-.306.152-.422.201-.483Zm-.887 12.292 7.547 9.458 5.106-6.399c.555.498.822.569 2 1.176l-.397-1.35c-.1-.343.298-.893.54-1.146.537-.292.985-.71 1.321-1.224l4.166 2.096-3.877 8.893v2.574h-17.72v-2.574l-3.878-8.892 5.192-2.612Zm-6.165 3.401 3.645 8.358v2.32h-5.51c-.028-1.846.04-7.64 1.865-10.678Z" fill="#FF6B09"/></g><path d="M60 9.235V1H1v60h59v-8.235" stroke="#FF6B09" stroke-width="2"/><defs><clipPath id="a"><path fill="#fff" transform="translate(14 11.02)" d="M0 0h33.191v40.082H0z"/></clipPath></defs></svg>