<svg xmlns="http://www.w3.org/2000/svg" version="1.1" xmlns:xlink="http://www.w3.org/1999/xlink" xmlns:svgjs="http://svgjs.com/svgjs" width="22" height="30"><svg width="22" height="30" viewBox="0 0 22 30" fill="none" xmlns="http://www.w3.org/2000/svg">
<path d="M20.5397 15.5558C20.2739 14.9604 19.9072 14.374 19.371 13.6967C18.0189 11.9967 17.6064 8.20581 17.6018 8.16945C17.5835 7.98763 17.4551 7.83763 17.2855 7.78309C17.1114 7.72854 16.9235 7.77854 16.7997 7.9149C15.1864 9.71945 15.8647 12.5058 16.2314 13.6194C16.3322 13.924 16.4422 14.2831 16.5201 14.6467C17.1159 17.5876 15.9655 18.9194 15.6951 19.1876C15.4338 19.2604 15.2551 19.224 15.0901 19.0467C14.5217 18.424 14.3338 16.3831 14.5997 13.724C14.6547 13.1831 14.6409 12.6967 14.563 12.2422C14.0024 8.97386 11.9467 6.8774 11.4234 6.14218C9.98424 4.0149 9.83758 0.473994 9.83299 0.442176C9.82841 0.273994 9.73216 0.123994 9.58091 0.0512668C9.43424 -0.0214604 9.25549 -0.0123695 9.11799 0.083085C6.71633 1.7149 6.92258 5.64672 7.25716 7.84218C7.33508 8.35127 7.48633 8.86945 7.74758 9.524C8.67799 11.8649 7.56424 14.8876 7.55508 14.9149C7.54591 14.9422 7.53674 14.9649 7.53216 14.9922C7.39008 15.7376 7.15174 16.1831 6.88591 16.1831C6.85841 16.1831 6.83091 16.1785 6.79883 16.1694C6.47341 16.1013 6.30383 15.7558 6.29924 15.4558C6.28091 11.5785 2.38966 10.274 2.34841 10.2604C2.17424 10.2058 1.98174 10.2558 1.86258 10.3967C1.73883 10.5376 1.71591 10.7331 1.79841 10.8967C1.84424 10.9922 1.99091 11.4104 1.89008 12.8876C1.80299 14.2149 1.56008 15.5285 1.17049 16.7876C0.244659 19.8058 0.391326 22.6649 0.400492 22.8013C1.11242 30.5425 12.2456 31.899 18.853 27.5376C19.5772 27.0604 20.1684 26.5149 20.6038 25.9149C23.0422 22.5513 21.6076 17.9831 20.5397 15.5558ZM3.60429 22.9513C3.61804 23.2013 3.42554 23.4149 3.17345 23.4285H3.14595C2.90304 23.4285 2.70137 23.2422 2.68762 23.0013C2.64637 22.3376 2.65554 21.6422 2.70595 20.8876C2.72429 20.6376 2.94429 20.4513 3.19637 20.4649C3.44845 20.483 3.64095 20.7012 3.62262 20.9512C3.57216 21.6695 3.56304 22.324 3.60429 22.9513ZM3.82883 18.924C3.80133 19.1558 3.60424 19.324 3.37508 19.324C3.35674 19.324 3.33841 19.324 3.31549 19.3195C3.06799 19.2876 2.88924 19.0649 2.91674 18.8149L3.13674 17.0604C3.16883 16.8149 3.39341 16.6376 3.65007 16.6649C3.90216 16.6967 4.08091 16.924 4.04883 17.174L3.82883 18.924Z" fill="#FF6B09"></path>
<path d="M17.4391 6.21861C17.1891 6.1802 17.0177 5.94851 17.0562 5.70061C17.0848 5.51592 17.2504 4.57047 17.6998 4.09506C17.8728 3.91174 18.1624 3.9022 18.3477 4.07442C18.5323 4.24597 18.5417 4.53365 18.3685 4.71697C18.1783 4.91829 18.0163 5.49442 17.9621 5.83915C17.9234 6.08442 17.6928 6.25656 17.4391 6.21861Z" fill="#FF6B09"></path>
<path d="M0.729802 8.48269C0.642077 8.14464 0.424093 7.58714 0.214864 7.40514C0.0244267 7.23955 0.00540581 6.95237 0.172331 6.76373C0.338843 6.57464 0.628189 6.55532 0.819085 6.72155C1.31298 7.151 1.57103 8.07587 1.61782 8.25673C1.68048 8.49978 1.5328 8.747 1.28796 8.8096C1.03771 8.872 0.792181 8.72169 0.729802 8.48269Z" fill="#FF6B09"></path>
</svg><style>@media (prefers-color-scheme: light) { :root { filter: none; } }
</style></svg>