<svg width="61" height="63" fill="none" xmlns="http://www.w3.org/2000/svg"><g clip-path="url(#a)" fill="#FF6B09"><path d="M48.806 10.038H28.57a2.39 2.39 0 0 0-2.39 2.386v8.369L11.15 27.096a.488.488 0 0 0-.063.87l1.918 1.147V41.33a2.207 2.207 0 0 0-1.716 2.149v1.177c0 .27.219.49.489.49h3.433c.27 0 .49-.22.49-.49v-1.177a2.208 2.208 0 0 0-1.717-2.148V29.699l1.515.906c-.046.35-.005-.609-.021 5.687 0 2.07 5.306 3.178 10.705 3.242v9.533a2.387 2.387 0 0 0 2.387 2.383h20.235a2.388 2.388 0 0 0 2.387-2.384c0 .065-.003-2.02 0-36.641a2.403 2.403 0 0 0-2.385-2.387ZM14.72 43.478v.688h-2.454v-.688c0-.678.549-1.23 1.224-1.23.678 0 1.23.552 1.23 1.23Zm34.085 6.991H28.57c-.486 0-.915-.245-1.169-.618a1.397 1.397 0 0 1-.24-.785V45.76h23.047v3.306c0 .766-.639 1.402-1.403 1.402Zm1.403-5.686H27.161v-5.246c2.636-.03 10.711-.61 10.711-3.245-.003-3.955.007-5.559-.012-5.695l4.396-2.63a.49.49 0 0 0-.063-.87l-15.032-6.305v-4.085h23.048v28.076ZM26.671 33.045c-2.715 0-7.944.35-10.215 1.832.014-4.532-.157-4.237.401-4.622 1.411-1.037 5.447-1.762 9.814-1.762 1.905 0 10.222.523 10.222 2.282v4.103c-2.293-1.496-7.495-1.833-10.222-1.833Zm.49-20.62c0-.776.632-1.406 1.408-1.406h20.235c.777 0 1.405.64 1.405 1.405v3.305H27.162v-3.304Zm-.49 9.223 14.252 5.976-3.531 2.111c-1.878-1.86-8.088-2.22-10.72-2.22-2.637 0-8.848.361-10.721 2.22l-3.532-2.11 14.252-5.977ZM16.456 36.292c0-.791 3.508-2.269 10.215-2.269 6.711 0 10.222 1.477 10.222 2.27 0 .791-3.51 2.269-10.222 2.269-6.707 0-10.215-1.478-10.215-2.27Z"/><path d="M38.687 46.499a1.62 1.62 0 0 0-1.62 1.617 1.62 1.62 0 0 0 1.62 1.619 1.62 1.62 0 0 0 1.619-1.619 1.62 1.62 0 0 0-1.62-1.617Zm0 2.257a.64.64 0 1 1 .001-1.281.64.64 0 0 1-.002 1.281ZM40.554 12.885H36.82v.978h3.735v-.978Z"/></g><path d="M60 9.436V1.184H1v60.122h59v-8.252" stroke="#FF6B09" stroke-width="2"/><defs><clipPath id="a"><path fill="#fff" transform="translate(10.027 10.202)" d="M0 0h41.998v41.084H0z"/></clipPath></defs></svg>