<svg width="26" height="26" fill="none" xmlns="http://www.w3.org/2000/svg"><path d="M.429 8.149c.083-.589.147-1.18.252-1.764.6-3.309 2.943-5.56 6.292-5.675a172.25 172.25 0 0 1 12.108 0c3.645.13 6.285 2.83 6.399 6.476a186.03 186.03 0 0 1 0 11.624c-.114 3.647-2.753 6.345-6.398 6.477-4.032.145-8.077.149-12.109-.002-3.645-.137-6.166-2.842-6.41-6.494-.02-.316-.088-.63-.134-.944V8.15Zm12.574 14.977c1.845 0 3.692.055 5.535-.013 2.889-.107 4.666-1.831 4.733-4.718.084-3.596.084-7.197 0-10.794-.067-2.886-1.845-4.65-4.733-4.712a261.253 261.253 0 0 0-11 0c-2.866.06-4.649 1.789-4.726 4.643-.1 3.642-.1 7.29 0 10.932.077 2.854 1.86 4.543 4.726 4.649 1.82.068 3.643.013 5.465.013Z" fill="#fff"/><path d="M13 6.593a6.407 6.407 0 1 0 0 12.814 6.407 6.407 0 0 0 0-12.814Zm0 10.608a4.201 4.201 0 1 1 0-8.402 4.201 4.201 0 0 1 0 8.402ZM21.305 6.301a1.524 1.524 0 1 1-3.048 0 1.524 1.524 0 0 1 3.048 0Z" fill="#fff"/></svg>