<svg width="80" height="29" fill="none" xmlns="http://www.w3.org/2000/svg"><path d="M11.187 4.373v11.702H7.861V11.51H3.326v4.564H0V4.373h3.326v4.396h4.535V4.373h3.326ZM23.36 11.561c0 .022-.017.284-.05.786h-6.618c.134.468.392.83.772 1.086.392.246.88.368 1.462.368.436 0 .812-.061 1.125-.184.325-.122.65-.323.974-.602l1.68 1.739c-.884.98-2.178 1.471-3.88 1.471-1.064 0-2-.2-2.805-.602-.807-.4-1.434-.958-1.882-1.671-.437-.714-.655-1.522-.655-2.424 0-.892.213-1.689.638-2.391a4.55 4.55 0 0 1 1.798-1.672c.761-.401 1.618-.602 2.57-.602.907 0 1.73.19 2.47.569.738.368 1.32.908 1.746 1.621.437.703.655 1.538.655 2.508Zm-4.854-2.44c-.493 0-.907.139-1.243.417-.325.279-.532.658-.622 1.137h3.73c-.09-.48-.303-.858-.639-1.137-.325-.278-.734-.418-1.226-.418ZM25.504 3.67h3.191v12.405h-3.191V3.67ZM31.441 3.67h3.192v12.405h-3.192V3.67Z" fill="#111518"/><path d="M3.625 24.529v3.5h-.81v-1.435h-1.59v1.435h-.81v-3.5h.81v1.38h1.59v-1.38h.81Zm4.438 2.85v.65h-2.71v-3.5h2.645v.65h-1.84v.76h1.625v.63H6.158v.81h1.905Zm1.545-2.85h.81v2.84h1.755v.66H9.608v-3.5Zm3.917 0h.81v2.84h1.755v.66h-2.565v-3.5Zm3.918 0h.81v3.5h-.81v-3.5Zm3.69 3.56c-.276 0-.545-.037-.805-.11a1.918 1.918 0 0 1-.62-.295l.275-.61c.15.11.329.198.535.265.207.067.414.1.62.1.23 0 .4-.034.51-.1.11-.07.165-.162.165-.275a.251.251 0 0 0-.1-.205.685.685 0 0 0-.25-.135 4.72 4.72 0 0 0-.41-.11 5.7 5.7 0 0 1-.655-.19 1.083 1.083 0 0 1-.44-.305c-.12-.14-.18-.327-.18-.56 0-.204.055-.387.165-.55.11-.167.275-.299.495-.395.224-.097.495-.145.815-.145.224 0 .442.026.655.08.214.053.4.13.56.23l-.25.615a1.952 1.952 0 0 0-.97-.275c-.226 0-.395.037-.505.11a.337.337 0 0 0-.16.29c0 .12.062.21.185.27.127.056.319.113.575.17.267.063.485.127.655.19.17.063.315.163.435.3.124.136.185.321.185.555 0 .2-.056.383-.17.55-.11.163-.276.293-.5.39a2.048 2.048 0 0 1-.815.145Zm6.149-3.56v3.5h-.81v-1.435h-1.59v1.435h-.81v-3.5h.81v1.38h1.59v-1.38h.81Z" fill="#FF6B09"/><path d="M34.036 27.379v.65h-2.71v-3.5h2.645v.65h-1.84v.76h1.625v.63H32.13v.81h1.905Zm4.754-2.85v3.5h-.665l-1.745-2.125v2.125h-.8v-3.5h.67l1.74 2.125v-2.125h.8Zm4.093 1.695h.74v1.42c-.19.143-.41.253-.66.33-.25.076-.501.115-.755.115-.363 0-.69-.077-.98-.23a1.773 1.773 0 0 1-.684-.645 1.805 1.805 0 0 1-.245-.935 1.717 1.717 0 0 1 .935-1.575c.293-.157.623-.235.99-.235.306 0 .585.051.835.155.25.103.46.253.63.45l-.52.48a1.203 1.203 0 0 0-.905-.395c-.224 0-.422.047-.596.14a1.005 1.005 0 0 0-.404.395c-.097.17-.146.365-.146.585 0 .216.049.41.145.58.097.17.23.303.4.4.174.093.37.14.59.14.234 0 .444-.05.63-.15v-1.025Zm2.393-1.695h.81v2.84h1.755v.66h-2.565v-3.5Zm3.917 0h.81v3.5h-.81v-3.5Zm3.691 3.56c-.276 0-.545-.037-.805-.11a1.92 1.92 0 0 1-.62-.295l.275-.61c.15.11.328.198.535.265.207.067.413.1.62.1.23 0 .4-.034.51-.1.11-.07.165-.162.165-.275a.25.25 0 0 0-.1-.205.683.683 0 0 0-.25-.135 4.71 4.71 0 0 0-.41-.11 5.706 5.706 0 0 1-.655-.19 1.083 1.083 0 0 1-.44-.305c-.12-.14-.18-.327-.18-.56 0-.204.055-.387.165-.55.11-.167.275-.299.495-.395.224-.097.495-.145.815-.145.224 0 .442.026.655.08.214.053.4.13.56.23l-.25.615a1.952 1.952 0 0 0-.97-.275c-.227 0-.395.037-.505.11a.337.337 0 0 0-.16.29c0 .12.062.21.185.27.127.056.319.113.575.17a5.7 5.7 0 0 1 .655.19c.17.063.315.163.435.3.123.136.185.321.185.555 0 .2-.056.383-.17.55-.11.163-.276.293-.5.39a2.048 2.048 0 0 1-.815.145Zm6.149-3.56v3.5h-.81v-1.435h-1.59v1.435h-.81v-3.5h.81v1.38h1.59v-1.38h.81ZM66.295 13.517v2.557h-9.44V4.372h9.222V6.93h-5.93v1.972h5.224v2.475h-5.224v2.14h6.148ZM80 4.372v11.702h-2.738l-5.19-6.235v6.235h-3.26V4.372h2.739l5.19 6.236V4.372H80Z" fill="#111518"/><g clip-path="url(#a)" fill="#FF6B09"><path d="M52.151 10.002c-.172-.383-.408-.76-.755-1.195-.873-1.093-1.14-3.531-1.143-3.554a.295.295 0 0 0-.204-.249.301.301 0 0 0-.314.085c-1.042 1.16-.604 2.952-.367 3.668.065.196.136.427.186.66.385 1.891-.358 2.748-.533 2.92-.169.047-.284.024-.39-.09-.368-.4-.49-1.713-.318-3.423.036-.348.027-.66-.023-.953-.362-2.101-1.69-3.45-2.029-3.922-.93-1.368-1.024-3.644-1.027-3.665a.286.286 0 0 0-.163-.251.297.297 0 0 0-.3.02c-1.55 1.05-1.418 3.578-1.201 4.99.05.327.148.66.316 1.08.602 1.506-.118 3.45-.124 3.467-.006.017-.012.032-.015.05-.091.479-.245.765-.417.765a.205.205 0 0 1-.056-.008c-.21-.044-.32-.267-.323-.46-.012-2.492-2.526-3.331-2.553-3.34a.296.296 0 0 0-.314.088.286.286 0 0 0-.041.321c.03.062.124.33.06 1.28a10.867 10.867 0 0 1-.466 2.508 12.16 12.16 0 0 0-.497 3.867c.46 4.977 7.653 5.85 11.922 3.045.467-.307.85-.658 1.13-1.043 1.576-2.163.65-5.1-.04-6.661ZM41.21 14.757a.293.293 0 0 1-.279.307h-.017a.294.294 0 0 1-.297-.275 10.49 10.49 0 0 1 .012-1.359.298.298 0 0 1 .317-.272.295.295 0 0 1 .276.313 9.382 9.382 0 0 0-.012 1.286Zm.145-2.59a.293.293 0 0 1-.293.258c-.012 0-.024 0-.039-.003a.295.295 0 0 1-.258-.325l.143-1.128a.299.299 0 0 1 .331-.254c.163.02.279.167.258.327l-.142 1.126ZM50.148 3.998a.293.293 0 0 1-.247-.333c.018-.118.125-.726.416-1.032a.298.298 0 0 1 .418-.013.29.29 0 0 1 .014.413c-.123.13-.228.5-.263.721a.296.296 0 0 1-.338.244ZM39.353 5.454c-.057-.217-.198-.576-.333-.693a.29.29 0 0 1-.028-.412.298.298 0 0 1 .418-.027c.32.276.486.87.516.987a.292.292 0 0 1-.213.355.297.297 0 0 1-.36-.21Z"/></g><defs><clipPath id="a"><path fill="#fff" transform="translate(38.88)" d="M0 0h14.214v19.289H0z"/></clipPath></defs></svg>