<svg width="128" height="45" fill="none" xmlns="http://www.w3.org/2000/svg"><path d="M19.136 6.8V25h-5.148v-7.098h-7.02V25H1.82V6.8h5.148v6.838h7.02V6.8h5.148Zm18.841 11.18c0 .035-.026.442-.078 1.222H27.655c.208.728.607 1.291 1.196 1.69.607.381 1.36.572 2.262.572.676 0 1.257-.095 1.742-.286.503-.19 1.006-.503 1.508-.936l2.6 2.704c-1.37 1.525-3.371 2.288-6.006 2.288-1.646 0-3.094-.312-4.342-.936-1.248-.624-2.218-1.49-2.912-2.6-.676-1.11-1.014-2.366-1.014-3.77 0-1.387.33-2.626.988-3.718a7.057 7.057 0 0 1 2.782-2.6c1.179-.624 2.505-.936 3.978-.936 1.404 0 2.678.295 3.822.884a6.431 6.431 0 0 1 2.704 2.522c.676 1.092 1.014 2.392 1.014 3.9Zm-7.514-3.796c-.762 0-1.404.217-1.924.65-.502.433-.823 1.023-.962 1.768h5.772c-.138-.745-.468-1.335-.988-1.768-.502-.433-1.135-.65-1.898-.65Zm10.832-8.476h4.94V25h-4.94V5.708Zm9.19 0h4.94V25h-4.94V5.708Z" fill="#fff"/><path d="M7.8 37.4V43H6.504v-2.296H3.96V43H2.664v-5.6H3.96v2.208h2.544V37.4H7.8Zm7.1 4.56V43h-4.335v-5.6h4.232v1.04h-2.944v1.216h2.6v1.008h-2.6v1.296H14.9Zm2.472-4.56h1.296v4.544h2.808V43h-4.104v-5.6Zm6.268 0h1.296v4.544h2.808V43H23.64v-5.6Zm6.268 0h1.296V43h-1.296v-5.6Zm5.905 5.696c-.442 0-.872-.059-1.288-.176-.41-.123-.741-.28-.992-.472l.44-.976c.24.176.526.317.856.424.331.107.662.16.992.16.368 0 .64-.053.816-.16.176-.112.264-.259.264-.44a.402.402 0 0 0-.16-.328 1.096 1.096 0 0 0-.4-.216 7.543 7.543 0 0 0-.656-.176 9.122 9.122 0 0 1-1.048-.304 1.732 1.732 0 0 1-.704-.488c-.192-.224-.288-.523-.288-.896 0-.325.088-.619.264-.88.176-.267.44-.477.792-.632.358-.155.792-.232 1.304-.232.358 0 .707.043 1.048.128.342.085.64.208.896.368l-.4.984c-.517-.293-1.034-.44-1.552-.44-.362 0-.632.059-.808.176a.539.539 0 0 0-.256.464c0 .192.099.336.296.432.203.09.51.181.92.272.427.101.776.203 1.048.304.272.101.504.261.696.48.198.219.296.515.296.888 0 .32-.09.613-.272.88-.176.261-.442.47-.8.624-.357.155-.792.232-1.304.232Zm9.838-5.696V43h-1.296v-2.296H41.81V43h-1.296v-5.6h1.296v2.208h2.544V37.4h1.296Z" fill="#FF6B09"/><path d="M56.458 41.96V43H52.12v-5.6h4.232v1.04H53.41v1.216h2.6v1.008h-2.6v1.296h3.049Zm7.607-4.56V43H63l-2.792-3.4V43h-1.28v-5.6H60l2.784 3.4v-3.4h1.28Zm6.549 2.712h1.184v2.272c-.304.23-.656.405-1.056.528s-.803.184-1.208.184a3.303 3.303 0 0 1-1.568-.368 2.837 2.837 0 0 1-1.096-1.032 2.887 2.887 0 0 1-.392-1.496c0-.555.13-1.05.392-1.488a2.747 2.747 0 0 1 1.104-1.032c.469-.25.997-.376 1.584-.376.49 0 .936.083 1.336.248.4.165.736.405 1.008.72l-.832.768a1.924 1.924 0 0 0-1.448-.632c-.358 0-.675.075-.952.224-.278.15-.494.36-.648.632a1.86 1.86 0 0 0-.232.936c0 .347.077.656.232.928.154.272.368.485.64.64.277.15.592.224.944.224a2.1 2.1 0 0 0 1.008-.24v-1.64Zm3.828-2.712h1.296v4.544h2.808V43H74.44v-5.6Zm6.268 0h1.296V43H80.71v-5.6Zm5.905 5.696c-.443 0-.872-.059-1.288-.176-.411-.123-.742-.28-.992-.472l.44-.976c.24.176.525.317.856.424.33.107.661.16.992.16.368 0 .64-.053.816-.16.176-.112.264-.259.264-.44a.402.402 0 0 0-.16-.328 1.095 1.095 0 0 0-.4-.216 7.533 7.533 0 0 0-.656-.176 9.128 9.128 0 0 1-1.048-.304 1.733 1.733 0 0 1-.704-.488c-.192-.224-.288-.523-.288-.896 0-.325.088-.619.264-.88.176-.267.44-.477.792-.632.357-.155.792-.232 1.304-.232.357 0 .706.043 1.048.128.341.085.64.208.896.368l-.4.984c-.518-.293-1.035-.44-1.552-.44-.363 0-.632.059-.808.176a.54.54 0 0 0-.256.464c0 .192.098.336.296.432.202.09.509.181.92.272.426.101.776.203 1.048.304.272.101.504.261.696.48.197.219.296.515.296.888 0 .32-.091.613-.272.88-.176.261-.443.47-.8.624-.358.155-.792.232-1.304.232Zm9.837-5.696V43h-1.296v-2.296h-2.544V43h-1.296v-5.6h1.296v2.208h2.544V37.4h1.296ZM104.432 21.022V25H89.82V6.8h14.274v3.978h-9.178v3.068h8.086v3.848h-8.086v3.328h9.516ZM125.645 6.8V25h-4.238l-8.034-9.698V25h-5.044V6.8h4.238l8.034 9.698V6.8h5.044Z" fill="#fff"/><path d="M82.54 15.556c-.266-.596-.633-1.182-1.169-1.86-1.352-1.7-1.765-5.49-1.77-5.527a.457.457 0 0 0-.316-.386.465.465 0 0 0-.485.132c-1.614 1.804-.935 4.59-.569 5.704.101.305.211.664.29 1.027.595 2.941-.555 4.273-.826 4.541-.261.073-.44.037-.605-.14-.568-.623-.756-2.664-.49-5.323a5.441 5.441 0 0 0-.037-1.482c-.56-3.268-2.616-5.365-3.14-6.1-1.439-2.127-1.585-5.668-1.59-5.7a.458.458 0 0 0-.715-.36c-2.402 1.633-2.195 5.564-1.86 7.76.077.509.228 1.027.49 1.682.93 2.34-.184 5.363-.193 5.39-.01.028-.018.05-.023.078-.142.745-.38 1.19-.646 1.19a.314.314 0 0 1-.087-.013c-.326-.068-.495-.413-.5-.713-.018-3.878-3.91-5.182-3.95-5.196a.456.456 0 0 0-.486.136.447.447 0 0 0-.065.5c.046.096.193.514.092 1.991a16.978 16.978 0 0 1-.72 3.9c-.925 3.019-.779 5.878-.77 6.014.712 7.741 11.846 9.098 18.453 4.736.724-.477 1.315-1.022 1.75-1.622 2.44-3.364 1.005-7.932-.063-10.36ZM65.604 22.95a.454.454 0 0 1-.43.477h-.028a.456.456 0 0 1-.458-.427c-.042-.664-.032-1.36.018-2.114a.463.463 0 0 1 .49-.422.458.458 0 0 1 .427.486c-.05.718-.06 1.373-.019 2Zm.225-4.027a.455.455 0 0 1-.454.4c-.018 0-.037 0-.06-.005a.459.459 0 0 1-.398-.504l.22-1.755a.463.463 0 0 1 .513-.395c.252.032.43.259.399.509l-.22 1.75ZM79.44 6.219a.455.455 0 0 1-.384-.518c.029-.185.194-1.13.644-1.606a.46.46 0 0 1 .648-.02c.184.171.194.459.02.642-.19.201-.352.777-.406 1.122a.458.458 0 0 1-.523.38ZM62.73 8.483c-.088-.338-.306-.896-.515-1.078a.452.452 0 0 1-.043-.641.46.46 0 0 1 .647-.042c.494.429.752 1.354.799 1.535a.454.454 0 0 1-.33.553.46.46 0 0 1-.558-.327Z" fill="#FF6B09"/></svg>