<svg width="20" height="19" fill="none" xmlns="http://www.w3.org/2000/svg"><path d="M2.91.002c-.321.015-.638.15-.87.402L.42 2.167c.002-.005-.006-.005-.052.06a.388.388 0 0 0-.057.109c-.66 2.079-.217 4.366.86 6.541 1.078 2.176 2.798 4.257 4.771 5.966 1.974 1.708 4.201 3.044 6.325 3.707 2.123.663 4.182.654 5.708-.44a.403.403 0 0 0 .046-.04c.04-.04.042-.045.035-.039l.006-.008 1.614-1.755a1.239 1.239 0 0 0-.083-1.755l-3.829-3.443a1.272 1.272 0 0 0-1.775.082l-1.732 1.884c-1.406-.403-2.608-1.086-3.765-2.126-1.156-1.04-1.957-2.16-2.495-3.506L7.728 5.52a1.239 1.239 0 0 0-.084-1.755L3.816.32a1.262 1.262 0 0 0-.905-.32Zm.037.772a.472.472 0 0 1 .338.124l3.828 3.444c.198.177.211.46.032.655L5.23 7.078a.388.388 0 0 0-.078.395c.581 1.568 1.519 2.854 2.808 4.014 1.29 1.16 2.672 1.962 4.306 2.386a.398.398 0 0 0 .39-.115l1.916-2.081a.463.463 0 0 1 .662-.03l3.83 3.443a.45.45 0 0 1 .03.655l-1.6 1.74c-1.253.889-3.017.939-4.992.322-1.983-.62-4.136-1.901-6.041-3.55-1.906-1.65-3.564-3.663-4.583-5.72C.869 6.5.503 4.443 1.058 2.629l1.564-1.7a.47.47 0 0 1 .325-.155Z" fill="#FF6B09"/></svg>